<svg xmlns="http://www.w3.org/2000/svg" viewBox="0 0 64 64">
  <defs>
    <linearGradient id="bg" x1="0%" y1="0%" x2="100%" y2="100%">
      <stop offset="0%" stop-color="#111827" />
      <stop offset="100%" stop-color="#1f2937" />
    </linearGradient>
  </defs>
  <rect width="64" height="64" rx="14" fill="url(#bg)" />
  <path
    d="M42 16H24a6 6 0 0 0-6 6v2h4v-2a2 2 0 0 1 2-2h18a2 2 0 0 1 0 4H30a6 6 0 0 0 0 12h12a2 2 0 0 1 0 4H24a2 2 0 0 1-2-2v-2h-4v2a6 6 0 0 0 6 6h18a6 6 0 0 0 0-12H30a2 2 0 0 1 0-4h12a6 6 0 0 0 0-12Z"
    fill="#f9fafb"
  />
</svg>
